<svg xmlns="http://www.w3.org/2000/svg" version="1.1" xmlns:xlink="http://www.w3.org/1999/xlink" xmlns:svgjs="http://svgjs.dev/svgjs" width="24" height="24"><svg width="24" height="24" viewBox="0 0 24 24" fill="none" xmlns="http://www.w3.org/2000/svg">
<g clip-path="url(#clip0_7058_17)">
<path d="M20.25 0V2.66667H17.5V0H6.5V2.66667H3.75V0H1V24H3.75V21.3333H6.5V24H17.5V21.3333H20.25V24H23V0H20.25ZM6.5 18.6667H3.75V16H6.5V18.6667ZM6.5 13.3333H3.75V10.6667H6.5V13.3333ZM6.5 8H3.75V5.33333H6.5V8ZM14.75 21.3333H9.25V2.66667H14.75V21.3333ZM20.25 18.6667H17.5V16H20.25V18.6667ZM20.25 13.3333H17.5V10.6667H20.25V13.3333ZM20.25 8H17.5V5.33333H20.25V8Z" fill="#FA2828" fill-opacity="0.98"></path>
</g>
<defs>
<clipPath id="SvgjsClipPath1173">
<rect width="24" height="24" fill="white"></rect>
</clipPath>
</defs>
</svg><style>@media (prefers-color-scheme: light) { :root { filter: none; } }
@media (prefers-color-scheme: dark) { :root { filter: none; } }
</style></svg>